<svg width="202" height="47" viewBox="0 0 202 47" fill="none" xmlns="http://www.w3.org/2000/svg">
<rect x="1.396" width="195.78" height="36" rx="18" transform="rotate(2 1.396 0)" fill="#00F2EA"/>
<rect x="5.25391" y="4.13721" width="195.78" height="36" rx="18" transform="rotate(2 5.25391 4.13721)" fill="#FF004F"/>
<rect x="3.32495" y="2.0686" width="195.775" height="36" rx="18" transform="rotate(2 3.32495 2.0686)" fill="black"/>
<path d="M20.2533 25.6737L20.5954 15.8797L22.6941 15.953L22.3521 25.747L20.2533 25.6737ZM21.3546 21.8178L21.4176 20.0129L26.4825 20.1898L26.4195 21.9947L21.3546 21.8178ZM21.4948 17.8023L21.5608 15.9134L27.2133 16.1108L27.1474 17.9996L21.4948 17.8023ZM31.1147 26.1931C30.4991 26.1716 29.9499 25.9843 29.4673 25.6313C28.9847 25.2782 28.6089 24.8075 28.3399 24.219C28.0709 23.6306 27.9495 22.9633 27.9755 22.2171C28.0016 21.4709 28.1691 20.8184 28.4782 20.2595C28.7968 19.6916 29.2137 19.2532 29.7288 18.9443C30.2442 18.6261 30.8238 18.4782 31.4674 18.5007C31.8311 18.5134 32.1603 18.5809 32.4549 18.7033C32.7591 18.8167 33.0199 18.9705 33.2373 19.1649C33.4639 19.3596 33.6523 19.581 33.8024 19.829C33.9525 20.0771 34.0553 20.3422 34.1109 20.6243L33.6936 20.5396L33.7566 18.7347L35.7294 18.8036L35.4709 26.2051L33.4701 26.1353L33.5322 24.3583L33.9814 24.332C33.8976 24.5906 33.7678 24.8335 33.5917 25.0608C33.4157 25.2882 33.1985 25.4907 32.9401 25.6685C32.6914 25.8372 32.4112 25.9722 32.0995 26.0734C31.7881 26.1652 31.4598 26.2051 31.1147 26.1931ZM31.7205 24.4912C32.0936 24.5042 32.4231 24.427 32.7091 24.2596C32.9952 24.0921 33.2183 23.8524 33.3786 23.5405C33.5486 23.2196 33.6411 22.8446 33.6561 22.4155C33.6707 21.9957 33.6043 21.6245 33.4568 21.3018C33.3187 20.9795 33.1127 20.7248 32.8391 20.5378C32.5658 20.3415 32.2426 20.2368 31.8695 20.2238C31.5057 20.2111 31.1806 20.2931 30.8943 20.4699C30.6176 20.6377 30.3944 20.8774 30.2248 21.189C30.0551 21.5006 29.963 21.8663 29.9483 22.286C29.9334 22.7151 29.9994 23.0956 30.1466 23.4276C30.2941 23.7503 30.5 24.005 30.7643 24.1916C31.038 24.3786 31.3567 24.4785 31.7205 24.4912ZM37.4489 26.2742L37.7073 18.8727L39.6242 18.9396L39.6168 20.3543L39.321 20.4C39.4321 20.161 39.575 19.9465 39.7497 19.7565C39.9245 19.5665 40.1262 19.4055 40.355 19.2734C40.593 19.1416 40.8393 19.0428 41.0937 18.977C41.3485 18.9018 41.6018 18.8686 41.8537 18.8774C42.2361 18.8908 42.5791 18.9635 42.8827 19.0955C43.1863 19.2275 43.4408 19.4278 43.6462 19.6965C43.8519 19.9558 44.0081 20.2975 44.1147 20.7215L43.8079 20.6827L43.9136 20.4623C44.0427 20.2426 44.2036 20.0475 44.3964 19.8768C44.5894 19.6967 44.8048 19.5455 45.0426 19.423C45.2807 19.2913 45.5269 19.1925 45.7814 19.1266C46.0358 19.0608 46.2843 19.0321 46.5268 19.0406C47.1052 19.0608 47.5815 19.1942 47.9557 19.4407C48.3304 19.6779 48.603 20.0283 48.7736 20.4919C48.9535 20.9558 49.0319 21.5189 49.0087 22.1811L48.8519 26.6724L46.8651 26.603L47.0171 22.2517C47.0288 21.9159 46.9918 21.6391 46.906 21.4213C46.8202 21.2035 46.6905 21.0402 46.5168 20.9314C46.3435 20.8133 46.117 20.7493 45.8371 20.7396C45.6226 20.7321 45.4207 20.7624 45.2316 20.8305C45.0521 20.8896 44.8901 20.982 44.7456 21.1077C44.6108 21.2244 44.5031 21.3654 44.4227 21.5307C44.3422 21.696 44.2983 21.8812 44.2912 22.0864L44.1368 26.5077L42.15 26.4384L42.3024 22.073C42.3132 21.7652 42.271 21.5022 42.1759 21.2841C42.0904 21.057 41.961 20.8844 41.7877 20.7663C41.6144 20.6481 41.3972 20.5845 41.136 20.5754C40.9215 20.5679 40.7196 20.5982 40.5304 20.6663C40.3509 20.7254 40.1936 20.818 40.0585 20.944C39.9236 21.0607 39.8113 21.2016 39.7215 21.3665C39.641 21.5318 39.5974 21.7124 39.5905 21.9083L39.4356 26.3436L37.4489 26.2742ZM54.1808 26.9986C53.4253 26.9722 52.7547 26.7853 52.1692 26.438C51.5933 26.0817 51.1428 25.6084 50.8179 25.018C50.5023 24.428 50.3575 23.7598 50.3836 23.0136C50.4097 22.2674 50.6005 21.6157 50.9562 21.0584C51.3215 20.4922 51.8038 20.0514 52.4032 19.7361C53.0119 19.4212 53.694 19.2769 54.4496 19.3033C55.1958 19.3293 55.8568 19.5205 56.4328 19.8768C57.018 20.2335 57.4684 20.7068 57.784 21.2969C58.0999 21.8776 58.2449 22.541 58.2188 23.2872C58.1928 24.0335 58.0017 24.6899 57.6457 25.2564C57.2898 25.823 56.8074 26.2638 56.1987 26.5787C55.5997 26.8847 54.927 27.0246 54.1808 26.9986ZM54.2414 25.2636C54.6052 25.2763 54.9348 25.1991 55.2301 25.032C55.5258 24.8555 55.7584 24.6115 55.9281 24.2999C56.1074 23.9793 56.204 23.6185 56.218 23.2174C56.2324 22.807 56.1611 22.4402 56.0043 22.1172C55.8571 21.7852 55.6421 21.5256 55.3591 21.3383C55.0765 21.1416 54.7532 21.0369 54.3895 21.0242C54.0164 21.0112 53.682 21.0929 53.3863 21.2694C53.0906 21.4458 52.8533 21.6897 52.6743 22.001C52.4954 22.3122 52.4034 22.6732 52.3984 23.084C52.375 23.4847 52.4416 23.8513 52.5981 24.1836C52.7549 24.5066 52.9747 24.7665 53.2573 24.9631C53.5403 25.1504 53.8683 25.2506 54.2414 25.2636ZM62.1257 27.276C61.5847 27.2571 61.1224 27.1242 60.7388 26.8774C60.3648 26.6215 60.0782 26.2706 59.879 25.8247C59.6894 25.3698 59.6055 24.8299 59.6274 24.205L59.7866 19.6437L61.7734 19.7131L61.6254 23.9525C61.6137 24.2883 61.6594 24.5841 61.7625 24.8399C61.866 25.0863 62.018 25.2784 62.2187 25.4161C62.4193 25.5539 62.6689 25.628 62.9674 25.6384C63.1819 25.6459 63.3836 25.6202 63.5724 25.5615C63.7616 25.4934 63.9237 25.3963 64.0589 25.2703C64.194 25.1442 64.302 24.9939 64.3828 24.8193C64.4636 24.6447 64.5076 24.4548 64.5148 24.2496L64.6697 19.8143L66.6564 19.8836L66.398 27.2851L64.5091 27.2192L64.4924 25.6917L64.8621 25.5365C64.7381 25.8777 64.5406 26.1836 64.2697 26.4543C63.9987 26.7251 63.6786 26.9333 63.3093 27.0792C62.94 27.2251 62.5454 27.2907 62.1257 27.276ZM70.8827 27.5818C70.1925 27.5577 69.5808 27.4243 69.0476 27.1815C68.524 26.9298 68.106 26.5976 67.7936 26.1852L69.062 25.1648C69.3404 25.4827 69.6544 25.7178 70.0039 25.8701C70.3538 26.0131 70.706 26.0907 71.0604 26.1031C71.2003 26.108 71.3268 26.0984 71.4397 26.0743C71.5622 26.0413 71.6665 25.9982 71.7524 25.9452C71.8386 25.8828 71.9018 25.8103 71.9421 25.7277C71.992 25.636 72.0187 25.5389 72.0223 25.4363C72.0295 25.2311 71.9512 25.0649 71.7875 24.9378C71.6959 24.8879 71.5533 24.8269 71.3597 24.7547C71.1664 24.6733 70.9173 24.5852 70.6124 24.4905C70.141 24.3526 69.7401 24.1985 69.4098 24.0283C69.0892 23.849 68.8346 23.6533 68.6459 23.4412C68.4848 23.2395 68.3615 23.0251 68.2761 22.7979C68.2003 22.5618 68.1673 22.3038 68.177 22.024C68.1888 21.6882 68.274 21.3877 68.4327 21.1224C68.5917 20.8478 68.8052 20.6171 69.0732 20.4303C69.3505 20.2439 69.6636 20.1054 70.0123 20.0148C70.3613 19.915 70.727 19.8717 71.1095 19.885C71.4919 19.8984 71.8634 19.9581 72.2239 20.064C72.5844 20.17 72.9155 20.317 73.2171 20.505C73.5284 20.684 73.7966 20.8941 74.0216 21.1354L72.9172 22.2736C72.7548 22.1092 72.5687 21.9579 72.3587 21.8198C72.1581 21.6821 71.9471 21.572 71.7258 21.4895C71.5046 21.4071 71.3053 21.3628 71.1281 21.3566C70.9696 21.3511 70.8245 21.36 70.6929 21.3834C70.5707 21.4072 70.4666 21.4456 70.3807 21.4986C70.2948 21.5516 70.2269 21.624 70.177 21.7156C70.1368 21.7983 70.1149 21.8909 70.1113 21.9935C70.1077 22.0961 70.1276 22.1949 70.171 22.2898C70.2237 22.385 70.2955 22.4669 70.3865 22.5354C70.4872 22.595 70.6341 22.6655 70.8274 22.7469C71.03 22.8287 71.3023 22.9223 71.6441 23.0276C72.0876 23.1645 72.4607 23.313 72.7633 23.4729C73.0752 23.6333 73.321 23.8146 73.5007 24.017C73.6534 24.1905 73.7633 24.3857 73.8305 24.6029C73.8976 24.82 73.9266 25.0592 73.9175 25.3204C73.9015 25.7774 73.7566 26.1833 73.4827 26.5379C73.2185 26.8836 72.8589 27.1512 72.4041 27.3408C71.9495 27.521 71.4424 27.6014 70.8827 27.5818ZM80.1202 27.7643L80.3968 19.8451C80.4127 19.3881 80.5298 18.9766 80.7481 18.6107C80.9663 18.2447 81.2564 17.9607 81.6183 17.7585C81.9896 17.5567 82.4178 17.4642 82.9028 17.4812C83.2293 17.4926 83.5351 17.5593 83.8204 17.6813C84.1059 17.794 84.3481 17.9472 84.5468 18.1409L83.9083 19.5755C83.7897 19.4967 83.6659 19.4316 83.5369 19.3804C83.4176 19.3202 83.3066 19.2884 83.204 19.2848C83.0268 19.2786 82.8764 19.306 82.7529 19.3671C82.639 19.4191 82.552 19.5048 82.4918 19.6241C82.4319 19.7341 82.3989 19.8777 82.3927 20.0549L82.121 27.8342L81.1276 27.7995C80.9131 27.792 80.7219 27.7853 80.554 27.7795C80.3861 27.7736 80.2415 27.7686 80.1202 27.7643ZM79.2084 22.1851L79.267 20.5061L83.9681 20.6703L83.9095 22.3493L79.2084 22.1851ZM85.0393 27.9361L85.2978 20.5346L87.2146 20.6015L87.2015 22.9825L86.8828 22.4811C87.0081 22.1026 87.202 21.7638 87.4646 21.4648C87.7276 21.1564 88.03 20.9195 88.372 20.754C88.7233 20.5889 89.0855 20.5128 89.4586 20.5258C89.6172 20.5313 89.7706 20.5507 89.9189 20.5839C90.0671 20.6171 90.1919 20.6541 90.2932 20.695L89.6853 22.8591C89.5754 22.7993 89.4417 22.7479 89.2845 22.7051C89.1275 22.6529 88.9651 22.6239 88.7972 22.618C88.5733 22.6102 88.362 22.6448 88.1632 22.7219C87.974 22.79 87.8069 22.8963 87.6618 23.0406C87.517 23.1757 87.3992 23.3397 87.3084 23.5326C87.2269 23.7259 87.1821 23.9391 87.174 24.1723L87.0401 28.006L85.0393 27.9361ZM94.297 28.3995C93.5415 28.3731 92.8709 28.1862 92.2853 27.8389C91.7094 27.4826 91.259 27.0093 90.9341 26.4189C90.6185 25.8289 90.4737 25.1607 90.4998 24.4145C90.5258 23.6683 90.7167 23.0166 91.0724 22.4593C91.4377 21.893 91.92 21.4523 92.5194 21.137C93.1281 20.8221 93.8102 20.6778 94.5657 20.7042C95.3119 20.7302 95.973 20.9214 96.5489 21.2777C97.1342 21.6344 97.5846 22.1077 97.9002 22.6977C98.2161 23.2785 98.361 23.9419 98.335 24.6881C98.3089 25.4343 98.1179 26.0907 97.7619 26.6573C97.4059 27.2239 96.9236 27.6647 96.3149 27.9796C95.7158 28.2856 95.0432 28.4255 94.297 28.3995ZM94.3576 26.6645C94.7214 26.6772 95.0509 26.6 95.3463 26.4329C95.642 26.2564 95.8746 26.0124 96.0443 25.7008C96.2236 25.3802 96.3202 25.0193 96.3342 24.6183C96.3485 24.2078 96.2773 23.8411 96.1205 23.5181C95.9733 23.1861 95.7582 22.9265 95.4753 22.7391C95.1926 22.5425 94.8694 22.4378 94.5056 22.4251C94.1325 22.4121 93.7981 22.4938 93.5025 22.6702C93.2068 22.8467 92.9695 23.0906 92.7905 23.4018C92.6115 23.7131 92.5195 24.0741 92.5145 24.4849C92.4912 24.8856 92.5578 25.2522 92.7143 25.5845C92.8711 25.9075 93.0908 26.1673 93.3735 26.364C93.6564 26.5513 93.9845 26.6515 94.3576 26.6645ZM99.6863 28.4476L99.9448 21.0461L101.862 21.113L101.854 22.5276L101.558 22.5733C101.67 22.3344 101.812 22.1199 101.987 21.9299C102.162 21.7399 102.364 21.5788 102.592 21.4467C102.83 21.315 103.077 21.2162 103.331 21.1503C103.586 21.0752 103.839 21.042 104.091 21.0508C104.474 21.0642 104.817 21.1368 105.12 21.2688C105.424 21.4009 105.678 21.6012 105.884 21.8699C106.089 22.1292 106.246 22.4709 106.352 22.8948L106.045 22.8561L106.151 22.6357C106.28 22.416 106.441 22.2209 106.634 22.0501C106.827 21.8701 107.042 21.7189 107.28 21.5964C107.518 21.4647 107.764 21.3659 108.019 21.3C108.273 21.2342 108.522 21.2055 108.764 21.214C109.343 21.2342 109.819 21.3676 110.193 21.6141C110.568 21.8513 110.84 22.2017 111.011 22.6653C111.191 23.1292 111.269 23.6923 111.246 24.3545L111.089 28.8458L109.103 28.7764L109.255 24.4251C109.266 24.0893 109.229 23.8125 109.143 23.5947C109.058 23.3769 108.928 23.2136 108.754 23.1048C108.581 22.9867 108.354 22.9227 108.075 22.913C107.86 22.9055 107.658 22.9358 107.469 23.0039C107.29 23.063 107.128 23.1554 106.983 23.2811C106.848 23.3978 106.741 23.5388 106.66 23.7041C106.58 23.8694 106.536 24.0546 106.529 24.2598L106.374 28.6811L104.387 28.6117L104.54 24.2464C104.551 23.9386 104.508 23.6756 104.413 23.4575C104.328 23.2304 104.198 23.0578 104.025 22.9396C103.852 22.8215 103.635 22.7579 103.373 22.7488C103.159 22.7413 102.957 22.7716 102.768 22.8397C102.588 22.8988 102.431 22.9914 102.296 23.1174C102.161 23.2341 102.049 23.3749 101.959 23.5399C101.878 23.7052 101.835 23.8858 101.828 24.0817L101.673 28.517L99.6863 28.4476Z" fill="white"/>
<g clip-path="url(#clip0_2_1681)">
<path d="M132.51 22.087C133.643 22.9574 135.049 23.4954 136.586 23.5491L136.689 20.5932C136.398 20.5832 136.109 20.5427 135.826 20.4725L135.745 22.7992C134.208 22.7455 132.803 22.2075 131.67 21.3371L131.459 27.3691C131.354 30.3866 128.821 32.7471 125.802 32.6417C124.676 32.6023 123.641 32.2254 122.791 31.6113C123.749 32.6604 125.111 33.338 126.642 33.3915C129.661 33.4969 132.194 31.1364 132.3 28.1188L132.51 22.087L132.51 22.087ZM133.682 19.1422C133.111 18.4733 132.751 17.622 132.699 16.693L132.712 16.3128L131.892 16.2842C132.057 17.4684 132.726 18.4986 133.682 19.1422ZM124.782 29.3625C124.465 28.9163 124.305 28.3783 124.325 27.8317C124.373 26.4516 125.531 25.3717 126.912 25.4199C127.17 25.4288 127.424 25.4771 127.667 25.5635L127.772 22.5416C127.487 22.4924 127.198 22.4656 126.909 22.4616L126.827 24.8137C126.584 24.7273 126.329 24.6789 126.072 24.6701C124.691 24.6219 123.532 25.7017 123.484 27.0819C123.45 28.0579 123.98 28.9224 124.782 29.3625Z" fill="#FF004F"/>
<path d="M131.67 21.337C132.803 22.2074 134.209 22.7454 135.745 22.7991L135.827 20.4724C134.975 20.2598 134.231 19.7853 133.682 19.1422C132.726 18.4985 132.057 17.4683 131.892 16.2842L129.737 16.2089L129.325 28.0148C129.272 29.3909 128.116 30.4663 126.738 30.4182C125.926 30.3898 125.218 29.9777 124.782 29.3624C123.98 28.9223 123.45 28.0578 123.484 27.082C123.532 25.7018 124.691 24.6219 126.072 24.6701C126.336 24.6794 126.59 24.7295 126.827 24.8137L126.909 22.4616C123.941 22.4193 121.471 24.7581 121.367 27.7369C121.315 29.2239 121.862 30.5927 122.792 31.6113C123.641 32.2254 124.676 32.6024 125.802 32.6417C128.821 32.7471 131.354 30.3865 131.459 27.3691L131.67 21.337L131.67 21.337Z" fill="white"/>
<path d="M135.827 20.4724L135.848 19.8433C135.075 19.8175 134.324 19.5745 133.682 19.1421C134.241 19.7981 134.991 20.2632 135.827 20.4724ZM131.892 16.2842C131.876 16.171 131.865 16.0573 131.858 15.9432L131.872 15.5631L128.897 15.4592L128.485 27.2651C128.432 28.6411 127.276 29.7165 125.897 29.6684C125.493 29.6542 125.114 29.5449 124.782 29.3625C125.218 29.9777 125.926 30.3898 126.738 30.4181C128.116 30.4663 129.272 29.391 129.325 28.0148L129.737 16.209L131.892 16.2842ZM126.909 22.4616L126.932 21.7919C126.685 21.7493 126.435 21.7235 126.184 21.7148C123.165 21.6094 120.632 23.97 120.527 26.9872C120.461 28.8789 121.364 30.5796 122.792 31.6112C121.862 30.5927 121.315 29.2238 121.367 27.7369C121.471 24.7581 123.941 22.4193 126.909 22.4616Z" fill="#00F2EA"/>
<path d="M169.944 31.7065C172.104 31.782 173.916 30.1061 173.99 27.9635C174.065 25.821 172.375 24.0225 170.215 23.9471L169.625 23.9265C171.785 24.0019 173.476 25.8004 173.401 27.9429C173.326 30.0855 171.514 31.7614 169.354 31.6859L169.944 31.7065Z" fill="#FF004F"/>
<path d="M169.572 23.9247L168.983 23.9042C166.823 23.8287 165.01 25.5049 164.936 27.6474C164.861 29.79 166.552 31.5882 168.712 31.6636L169.301 31.6842C167.14 31.6087 165.45 29.8105 165.525 27.668C165.6 25.5255 167.411 23.8493 169.572 23.9247Z" fill="#00F2EA"/>
<path d="M139.897 21.1328L139.828 23.0993L142.132 23.1798L141.87 30.6731L144.175 30.7536L144.434 23.3133L146.309 23.3788L147.023 21.3817L139.897 21.1328ZM158.757 21.7914L158.688 23.7579L160.992 23.8384L160.73 31.3317L163.034 31.4122L163.294 23.9719L165.169 24.0374L165.883 22.0403L158.757 21.7914ZM147.413 22.5126C147.434 21.8964 147.955 21.4142 148.576 21.4359C149.198 21.4576 149.684 21.975 149.663 22.5912C149.641 23.2074 149.12 23.6896 148.498 23.6679C147.877 23.6459 147.391 23.1289 147.413 22.5126ZM147.346 24.426L149.596 24.5046L149.371 30.9351L147.122 30.8565L147.346 24.426ZM150.666 21.5089L150.336 30.9687L152.586 31.0473L152.672 28.6028L153.39 27.9889L155.477 31.2014L157.888 31.2856L154.886 26.6047L157.823 23.94L155.09 23.8446L152.763 25.9981L152.917 21.5875L150.666 21.5089ZM174.937 22.3564L174.606 31.8162L176.857 31.8948L176.943 29.4504L177.661 28.8364L179.749 32.049L182.16 32.1332L179.158 27.4523L182.094 24.7876L179.362 24.6922L177.034 26.8456L177.188 22.435L174.937 22.3564Z" fill="white"/>
<path d="M169.354 31.686C171.514 31.7614 173.326 30.0855 173.401 27.943C173.476 25.8005 171.785 24.002 169.625 23.9265L169.572 23.9247C167.412 23.8492 165.6 25.5254 165.525 27.6679C165.45 29.8105 167.141 31.6087 169.301 31.6841L169.354 31.686ZM167.561 27.739C167.597 26.6968 168.479 25.8824 169.529 25.9191C170.579 25.9557 171.402 26.8297 171.365 27.8719C171.329 28.9141 170.447 29.729 169.398 29.6923C168.347 29.6555 167.525 28.7812 167.561 27.739Z" fill="white"/>
</g>
<defs>
<clipPath id="clip0_2_1681">
<rect width="61.7752" height="18" fill="white" transform="translate(120.939 15.1813) rotate(2)"/>
</clipPath>
</defs>
</svg>
